<svg width="69" height="62" viewBox="0 0 69 62" fill="none" xmlns="http://www.w3.org/2000/svg">
<path d="M51.9984 23.5374L41.3499 32.812C42.6861 34.9109 45.2546 36.3322 48.2054 36.3322C52.5324 36.3322 56.0401 33.2771 56.0401 29.5084C56.0401 26.9384 54.4082 24.7012 51.9984 23.5374Z" fill="url(#paint0_linear_139_103)"/>
<path d="M17.6535 50.1169L4.45837 38.6244L1.23516 41.4317L14.4303 52.9242L17.6535 50.1169Z" fill="url(#paint1_linear_139_103)"/>
<path d="M27.3235 45.0286L60.7649 15.9021L43.742 1.07568L10.3006 30.2021L14.8334 34.15L9.99835 38.3611L4.65981 38.4487L4.45837 38.6243L17.6536 50.1169L17.855 49.9415L17.9558 45.2918L22.7907 41.0807L27.3235 45.0286Z" fill="white"/>
<path d="M44.1781 20.7562L26.3494 36.2844C25.8671 36.7045 25.8671 37.3856 26.3494 37.8058C26.5906 38.0159 26.9066 38.1209 27.2227 38.1209C27.5387 38.1209 27.8549 38.0159 28.096 37.8058L45.9247 22.2776C46.407 21.8575 46.407 21.1764 45.9247 20.7562C45.4423 20.336 44.6605 20.336 44.1781 20.7562Z" fill="url(#paint2_linear_139_103)"/>
<path d="M52.1697 15.3169C51.6873 14.8969 50.9055 14.8969 50.423 15.3169L48.2071 17.247C47.7248 17.667 47.7248 18.3482 48.2071 18.7683C48.4483 18.9784 48.7643 19.0834 49.0804 19.0834C49.3964 19.0834 49.7125 18.9784 49.9537 18.7683L52.1696 16.8383C52.652 16.4181 52.652 15.737 52.1697 15.3169Z" fill="url(#paint3_linear_139_103)"/>
<path d="M60.4561 45.0579H54.9718C51.9218 45.0579 49.4404 42.8968 49.4404 40.2403V37.3327C53.8591 36.8062 57.2753 33.4991 57.2753 29.5083C57.2753 27.1094 56.0222 24.8658 53.9258 23.3801L61.6382 16.6626C61.8698 16.4609 62 16.1873 62 15.902C62 15.6167 61.8698 15.3431 61.6382 15.1414L44.6152 0.315045C44.1328 -0.105015 43.351 -0.105015 42.8685 0.315045L9.42717 29.4415C8.94488 29.8616 8.94488 30.5427 9.42717 30.9627L13.0866 34.15L9.47719 37.2937L4.63662 37.3733C4.31736 37.3785 4.01267 37.4913 3.78678 37.688L3.58571 37.863C3.58547 37.8632 3.58534 37.8634 3.5851 37.8636L0.361718 40.6709C-0.120573 41.091 -0.120573 41.7721 0.361718 42.1923L13.557 53.6849C13.7982 53.895 14.1142 54 14.4303 54C14.7463 54 15.0625 53.895 15.3036 53.6849L18.5268 50.8776L18.7283 50.7021C18.9542 50.5053 19.0837 50.24 19.0898 49.9618L19.1812 45.7457L22.7905 42.602L26.45 45.7893C26.6815 45.991 26.9957 46.1044 27.3233 46.1044C27.6508 46.1044 27.965 45.991 28.1966 45.7893L41.169 34.4907C42.617 36.0405 44.6915 37.061 46.9701 37.3342V40.2405C46.9701 44.0833 50.5595 47.2096 54.9715 47.2096H60.4561C61.1381 47.2096 61.6911 46.728 61.6911 46.1339C61.6911 45.5397 61.1381 45.0579 60.4561 45.0579ZM14.4303 51.4031L2.98165 41.4317L4.45828 40.1456L15.9069 50.1169L14.4303 51.4031ZM17.0824 44.5312C16.8565 44.7279 16.727 44.9933 16.7209 45.2715L16.6674 47.7368L7.19097 39.483L10.0215 39.4365C10.3409 39.4312 10.6456 39.3183 10.8714 39.1216L14.833 35.6712L21.0439 41.0807L17.0824 44.5312ZM12.0471 30.2021L43.7419 2.59692L59.0181 15.902L27.3234 43.5073L12.0471 30.2021ZM52.1671 24.9117C53.8133 25.9895 54.805 27.6877 54.805 29.5083C54.805 32.6778 51.8444 35.2565 48.2053 35.2565C46.1149 35.2565 44.1651 34.3927 42.9279 32.9589L52.1671 24.9117Z" fill="url(#paint4_linear_139_103)"/>
<path opacity="0.1" d="M21 37.5C21 24.2452 31.7452 13.5 45 13.5V13.5C58.2548 13.5 69 24.2452 69 37.5V37.5C69 50.7548 58.2548 61.5 45 61.5V61.5C31.7452 61.5 21 50.7548 21 37.5V37.5Z" fill="url(#paint5_linear_139_103)"/>
<defs>
<linearGradient id="paint0_linear_139_103" x1="48.695" y1="23.5374" x2="48.695" y2="36.3322" gradientUnits="userSpaceOnUse">
<stop stop-color="#D500F9"/>
<stop offset="1" stop-color="#4EC9DC" stop-opacity="0"/>
</linearGradient>
<linearGradient id="paint1_linear_139_103" x1="11.0559" y1="44.3707" x2="8.27518" y2="47.5633" gradientUnits="userSpaceOnUse">
<stop stop-color="#D500F9"/>
<stop offset="1" stop-color="#4EC9DC" stop-opacity="0"/>
</linearGradient>
<linearGradient id="paint2_linear_139_103" x1="36.137" y1="20.4411" x2="36.137" y2="38.1209" gradientUnits="userSpaceOnUse">
<stop offset="0.380208" stop-color="#D500F9" stop-opacity="0.63"/>
<stop offset="1" stop-color="#FF0000"/>
</linearGradient>
<linearGradient id="paint3_linear_139_103" x1="50.1884" y1="15.0019" x2="50.1884" y2="19.0834" gradientUnits="userSpaceOnUse">
<stop offset="0.380208" stop-color="#D500F9" stop-opacity="0.63"/>
<stop offset="1" stop-color="#FF0000"/>
</linearGradient>
<linearGradient id="paint4_linear_139_103" x1="31" y1="0" x2="31" y2="54" gradientUnits="userSpaceOnUse">
<stop offset="0.380208" stop-color="#D500F9" stop-opacity="0.63"/>
<stop offset="1" stop-color="#FF0000"/>
</linearGradient>
<linearGradient id="paint5_linear_139_103" x1="21" y1="37.5" x2="69" y2="37.5" gradientUnits="userSpaceOnUse">
<stop stop-color="#D500F9"/>
<stop offset="1" stop-color="#FF1744"/>
</linearGradient>
</defs>
</svg>
