<svg width="200" height="200" viewBox="0 0 200 200" fill="none" xmlns="http://www.w3.org/2000/svg">
<g clip-path="url(#clip0_7_15)">
<path d="M100 200C155.228 200 200 155.228 200 100C200 44.7715 155.228 0 100 0C44.7715 0 0 44.7715 0 100C0 155.228 44.7715 200 100 200Z" fill="#F2CF61"/>
<path d="M0 157.812H200V162.5C200 165.078 197.891 167.188 195.312 167.188H4.6875C2.11094 167.188 0 165.078 0 162.5V157.812Z" fill="#B3B3B3"/>
<path d="M168.75 129.688H31.25L0 157.812H200L168.75 129.688Z" fill="#E6E6E6"/>
<path d="M16.2875 151.562L33.6484 135.938H166.352L183.712 151.562H16.2875Z" fill="#F5F5F5"/>
<path d="M112.5 157.812C112.5 159.537 111.1 160.938 109.375 160.938H87.5C85.775 160.938 84.375 159.537 84.375 157.812H112.5Z" fill="#E6E6E6"/>
<path d="M31.25 129.688V45.3125C31.25 42.7344 33.3609 40.625 35.9375 40.625H164.062C166.641 40.625 168.75 42.7344 168.75 45.3125V129.688H31.25Z" fill="#263740"/>
<path d="M159.375 50H40.625V121.875H159.375V50Z" fill="#406A80"/>
<path d="M160.938 134.375C161.8 134.375 162.5 133.675 162.5 132.812C162.5 131.95 161.8 131.25 160.938 131.25C160.075 131.25 159.375 131.95 159.375 132.812C159.375 133.675 160.075 134.375 160.938 134.375Z" fill="#70CCBD"/>
<path d="M100 46.875C100.863 46.875 101.562 46.1754 101.562 45.3125C101.562 44.4496 100.863 43.75 100 43.75C99.1371 43.75 98.4375 44.4496 98.4375 45.3125C98.4375 46.1754 99.1371 46.875 100 46.875Z" fill="#CC584C"/>
<path d="M179.688 164.062H164.062C163.2 164.062 162.5 163.364 162.5 162.5C162.5 161.636 163.2 160.938 164.062 160.938H179.688C180.552 160.938 181.25 161.636 181.25 162.5C181.25 163.364 180.552 164.062 179.688 164.062Z" fill="#263740"/>
</g>
<defs>
<clipPath id="clip0_7_15">
<rect width="200" height="200" fill="white"/>
</clipPath>
</defs>
</svg>
