<svg width="59" height="58" viewBox="0 0 59 58" fill="none" xmlns="http://www.w3.org/2000/svg">
<path fill-rule="evenodd" clip-rule="evenodd" d="M6.26087 0L7.6967 4.17391H42.5217L43.7823 0H6.26087ZM50.087 20.8696H0L4.17391 48H45.913L50.087 20.8696ZM45.2224 25.0435L42.3319 43.8261H7.75524L4.86481 25.0435H45.2224ZM8.04313 16.6957L7.17704 12.5217H42.9078L42.0939 16.6957H46.3304L48 8.34783H2.08696L3.75652 16.6957H8.04313ZM31.3043 29.2174C32.4584 29.2174 33.3913 30.1523 33.3913 31.3043C33.3913 32.4563 32.4584 33.3913 31.3043 33.3913H18.7826C17.6285 33.3913 16.6957 32.4563 16.6957 31.3043C16.6957 30.1523 17.6285 29.2174 18.7826 29.2174H31.3043Z" fill="url(#paint0_linear_53_22)"/>
<circle opacity="0.1" cx="35" cy="34" r="24" fill="url(#paint1_linear_53_22)"/>
<defs>
<linearGradient id="paint0_linear_53_22" x1="0" y1="24" x2="50.087" y2="24" gradientUnits="userSpaceOnUse">
<stop stop-color="#D500F9"/>
<stop offset="1" stop-color="#FF1744"/>
</linearGradient>
<linearGradient id="paint1_linear_53_22" x1="11" y1="34" x2="59" y2="34" gradientUnits="userSpaceOnUse">
<stop stop-color="#D500F9"/>
<stop offset="1" stop-color="#FF1744"/>
</linearGradient>
</defs>
</svg>
