<svg width="20" height="20" viewBox="0 0 20 20" fill="none" xmlns="http://www.w3.org/2000/svg">
<mask id="mask0_9_53" style="mask-type:luminance" maskUnits="userSpaceOnUse" x="0" y="0" width="20" height="20">
<path d="M15 0H5C2.23858 0 0 2.23858 0 5V15C0 17.7614 2.23858 20 5 20H15C17.7614 20 20 17.7614 20 15V5C20 2.23858 17.7614 0 15 0Z" fill="white"/>
</mask>
<g mask="url(#mask0_9_53)">
<path d="M1.13142 7.11625V15.8717C1.13142 17.5288 2.4715 18.8689 4.12833 18.8689H15.872C17.5289 18.8689 18.869 17.5288 18.869 15.8717V7.14688C16.3343 7.80954 13.3077 8.1945 10.0583 8.1945C6.75796 8.1945 3.68914 7.79762 1.13142 7.11625ZM0.002831 3.44958C0.00103807 3.49626 0.000134927 3.54296 0.00012207 3.58966V16.4104C0.00012207 18.389 1.61109 20 3.59009 20H16.4103C18.3893 20 20.0002 18.389 20.0002 16.4104V3.58966C20.0002 3.56553 19.9999 3.54126 19.9994 3.51722V6.8228C19.8487 6.86998 19.6958 6.91622 19.5409 6.96134V16.1159C19.5409 18.0041 18.004 19.541 16.1159 19.541H3.88433C1.99625 19.541 0.45926 18.0041 0.45926 16.1159V6.92721C0.30431 6.8812 0.151428 6.83412 0.000811615 6.78605V3.56953C0.000860868 3.52943 0.00150116 3.48938 0.002831 3.44958Z" fill="#F2CF61"/>
<path d="M1.13127 4.12384C1.13127 2.47125 2.47135 1.12703 4.12817 1.12703H15.8718C17.5287 1.12703 18.8687 2.47125 18.8687 4.12384V15.8718C18.8687 17.5288 17.5287 18.8689 15.8718 18.8689H4.12813C2.4713 18.8689 1.13122 17.5288 1.13122 15.8718L1.13127 4.12384ZM0.459106 3.88408V16.1159C0.459106 18.004 1.9961 19.541 3.88417 19.541H16.1157C18.0038 19.541 19.5407 18.004 19.5407 16.1159V3.88408C19.5407 1.9961 18.0038 0.459106 16.1157 0.459106H3.88417C1.9961 0.459106 0.459106 1.9961 0.459106 3.88408Z" fill="#F2CF61"/>
<path d="M16.5742 0H3.38776C3.2991 0 3.21153 0.00448204 3.1245 0.0111312C1.40379 0.235529 0.0610013 1.68293 0.00268555 3.4496C0.0765161 1.53547 1.65784 0 3.58989 0H16.4102C18.3649 0 19.9606 1.57177 19.9992 3.51722V3.51028C19.9703 1.74726 18.6638 0.288279 16.9669 0.023149C16.8379 0.00837304 16.7071 0 16.5742 0Z" fill="#F2CF61"/>
<path d="M15.8719 1.12701H4.12827C2.47145 1.12701 1.13136 2.47123 1.13136 4.12382V7.1162C3.68908 7.79757 6.75785 8.19445 10.0581 8.19445C13.3075 8.19445 16.3341 7.80949 18.8687 7.14684V4.12387C18.8688 2.47128 17.5287 1.12701 15.8719 1.12701ZM16.4103 0H3.59003C1.65798 0 0.0766552 1.53547 0.00282463 3.4496C0.00154404 3.48939 0.000854492 3.52943 0.000854492 3.56953V6.78601C0.153174 6.83466 0.305999 6.88171 0.459303 6.92717V3.88411C0.459303 1.99613 1.9963 0.459138 3.88437 0.459138H16.1159C18.004 0.459138 19.5409 1.99613 19.5409 3.88411V6.96135C19.6942 6.91672 19.8471 6.87053 19.9994 6.8228V3.51722C19.9607 1.57177 18.365 0 16.4103 0Z" fill="#F2CF61"/>
<path d="M16.1157 0.459106H3.88418C1.9961 0.459106 0.459106 1.9961 0.459106 3.88408V6.92713C0.682244 6.9933 0.906303 7.05632 1.13122 7.11617V4.12384C1.13122 2.47125 2.4713 1.12703 4.12813 1.12703H15.8717C17.5287 1.12703 18.8687 2.47125 18.8687 4.12384V7.1469C19.0936 7.08817 19.3176 7.02632 19.5408 6.96137V3.88408C19.5407 1.9961 18.0038 0.459106 16.1157 0.459106Z" fill="#F2CF61"/>
<path d="M11.9926 5H10.2944C9.28669 5 8.16581 5.43878 8.16581 6.95102C8.17073 7.47795 8.16581 7.98259 8.16581 8.55052H7V10.4711H8.20188V16H10.4104V10.4346H11.8681L12 8.54513H10.3724C10.3724 8.54513 10.376 7.70463 10.3724 7.46054C10.3724 6.86293 10.973 6.89716 11.0091 6.89716C11.295 6.89716 11.8507 6.89802 11.9934 6.89716L11.9926 5Z" fill="white"/>
</g>
</svg>
