<svg width="32" height="32" viewBox="0 0 32 32" fill="none" xmlns="http://www.w3.org/2000/svg">
<path d="M16 30.5C7.99187 30.5 1.5 24.0081 1.5 16C1.5 7.99187 7.99187 1.5 16 1.5C24.0081 1.5 30.5 7.99187 30.5 16C30.5 24.0081 24.0081 30.5 16 30.5Z" stroke="#263238" stroke-width="3"/>
<path d="M16 30.5C7.99187 30.5 1.5 24.0081 1.5 16C1.5 7.99187 7.99187 1.5 16 1.5C24.0081 1.5 30.5 7.99187 30.5 16C30.5 24.0081 24.0081 30.5 16 30.5Z" stroke="black" stroke-opacity="0.2" stroke-width="3"/>
<path d="M10.3333 11.6667C11.0697 11.6667 11.6667 11.0697 11.6667 10.3333C11.6667 9.59695 11.0697 9 10.3333 9C9.59695 9 9 9.59695 9 10.3333C9 11.0697 9.59695 11.6667 10.3333 11.6667Z" fill="#263238"/>
<path d="M18 13C19.0609 13 20.0783 13.389 20.8284 14.0815C21.5786 14.7739 22 15.713 22 16.6923V21H19.3333V16.6923C19.3333 16.3659 19.1929 16.0528 18.9428 15.822C18.6928 15.5912 18.3536 15.4615 18 15.4615C17.6464 15.4615 17.3072 15.5912 17.0572 15.822C16.8071 16.0528 16.6667 16.3659 16.6667 16.6923V21H14V16.6923C14 15.713 14.4214 14.7739 15.1716 14.0815C15.9217 13.389 16.9391 13 18 13Z" fill="#263238"/>
<path d="M11.6667 13H9V21H11.6667V13Z" fill="#263238"/>
</svg>
