<svg width="32" height="32" viewBox="0 0 32 32" fill="none" xmlns="http://www.w3.org/2000/svg">
<path d="M0 3C0 2.20435 0.31607 1.44129 0.87868 0.87868C1.44129 0.31607 2.20435 0 3 0L19 0C19.7956 0 20.5587 0.31607 21.1213 0.87868C21.6839 1.44129 22 2.20435 22 3V7C22 7.79565 21.6839 8.55871 21.1213 9.12132C20.5587 9.68393 19.7956 10 19 10H3C2.20435 10 1.44129 9.68393 0.87868 9.12132C0.31607 8.55871 0 7.79565 0 7L0 3ZM3 2C2.73478 2 2.48043 2.10536 2.29289 2.29289C2.10536 2.48043 2 2.73478 2 3V7C2 7.26522 2.10536 7.51957 2.29289 7.70711C2.48043 7.89464 2.73478 8 3 8H19C19.2652 8 19.5196 7.89464 19.7071 7.70711C19.8946 7.51957 20 7.26522 20 7V3C20 2.73478 19.8946 2.48043 19.7071 2.29289C19.5196 2.10536 19.2652 2 19 2H3Z" fill="#0DB760"/>
<path d="M15.646 5.646L14.854 4.854C14.7839 4.78407 14.7361 4.6949 14.7168 4.59779C14.6974 4.50068 14.7073 4.40001 14.7452 4.30854C14.7831 4.21706 14.8474 4.13891 14.9297 4.08398C15.0121 4.02905 15.109 3.99982 15.208 4H16.792C16.891 3.99982 16.9879 4.02905 17.0703 4.08398C17.1526 4.13891 17.2169 4.21706 17.2548 4.30854C17.2927 4.40001 17.3026 4.50068 17.2832 4.59779C17.2639 4.6949 17.2161 4.78407 17.146 4.854L16.354 5.646C16.3076 5.69256 16.2524 5.72951 16.1916 5.75471C16.1309 5.77992 16.0658 5.79289 16 5.79289C15.9342 5.79289 15.8691 5.77992 15.8084 5.75471C15.7476 5.72951 15.6924 5.69256 15.646 5.646ZM0 16C0 14.9391 0.421427 13.9217 1.17157 13.1716C1.92172 12.4214 2.93913 12 4 12H28C29.0609 12 30.0783 12.4214 30.8284 13.1716C31.5786 13.9217 32 14.9391 32 16V26C32 27.0609 31.5786 28.0783 30.8284 28.8284C30.0783 29.5786 29.0609 30 28 30H4C2.93913 30 1.92172 29.5786 1.17157 28.8284C0.421427 28.0783 0 27.0609 0 26V16ZM2 22V26C2 26.5304 2.21071 27.0391 2.58579 27.4142C2.96086 27.7893 3.46957 28 4 28H28C28.5304 28 29.0391 27.7893 29.4142 27.4142C29.7893 27.0391 30 26.5304 30 26V22H2ZM30 20V16C30 15.4696 29.7893 14.9609 29.4142 14.5858C29.0391 14.2107 28.5304 14 28 14H4C3.46957 14 2.96086 14.2107 2.58579 14.5858C2.21071 14.9609 2 15.4696 2 16V20H30ZM4 17C4 16.7348 4.10536 16.4804 4.29289 16.2929C4.48043 16.1054 4.73478 16 5 16H23C23.2652 16 23.5196 16.1054 23.7071 16.2929C23.8946 16.4804 24 16.7348 24 17C24 17.2652 23.8946 17.5196 23.7071 17.7071C23.5196 17.8946 23.2652 18 23 18H5C4.73478 18 4.48043 17.8946 4.29289 17.7071C4.10536 17.5196 4 17.2652 4 17ZM4 25C4 24.7348 4.10536 24.4804 4.29289 24.2929C4.48043 24.1054 4.73478 24 5 24H17C17.2652 24 17.5196 24.1054 17.7071 24.2929C17.8946 24.4804 18 24.7348 18 25C18 25.2652 17.8946 25.5196 17.7071 25.7071C17.5196 25.8946 17.2652 26 17 26H5C4.73478 26 4.48043 25.8946 4.29289 25.7071C4.10536 25.5196 4 25.2652 4 25Z" fill="#0DB760"/>
</svg>
