<svg width="60" height="58" viewBox="0 0 60 58" fill="none" xmlns="http://www.w3.org/2000/svg">
<path fill-rule="evenodd" clip-rule="evenodd" d="M0 26.1818C0 11.7229 11.7229 0 26.1818 0C40.6407 0 52.3636 11.7229 52.3636 26.1818C52.3636 31.8175 50.5833 37.1825 47.5527 41.4545H38.0465C36.0175 45.048 31.4684 48 26.1818 48C20.8953 48 16.3462 45.048 14.3171 41.4545H4.81091C1.78036 37.1825 0 31.8175 0 26.1818ZM26.1818 4.36364C38.2124 4.36364 48 14.1513 48 26.1818C48 30.0175 47.0007 33.8182 45.1571 37.0909H35.4982C34.6036 39.3753 31.9091 43.6364 26.1818 43.6364C20.3869 43.6364 17.7622 39.3753 16.8655 37.0909H7.20655C5.36291 33.8182 4.36364 30.0175 4.36364 26.1818C4.36364 14.1513 14.1513 4.36364 26.1818 4.36364ZM27.6435 8.352C27.1657 8.31491 26.6901 8.29528 26.2297 8.29528C25.765 8.29528 25.2872 8.31491 24.8115 8.352V14.4262C25.2828 14.3716 25.7584 14.3433 26.2297 14.3433C26.6988 14.3433 27.1766 14.3716 27.6435 14.4262V8.352ZM34.6036 10.3789C33.7592 9.93158 32.8799 9.55195 31.9854 9.24649L29.7534 14.8603C30.6654 15.133 31.5425 15.5127 32.3716 15.9927L34.6036 10.3789ZM20.0401 16.0189C20.8691 15.5367 21.7441 15.1549 22.6539 14.8778L20.4001 9.27273C19.5011 9.58255 18.6262 9.96436 17.7819 10.416L20.0401 16.0189ZM18.3032 17.2342C17.5635 17.8517 16.8915 18.5499 16.3003 19.3222L12.1744 15.0284C12.7897 14.2801 13.4639 13.5797 14.1795 12.9404L18.3032 17.2342ZM42.6044 18.5847C43.0451 19.4531 43.4225 20.3629 43.7302 21.2946L38.3782 23.7076C38.1011 22.7651 37.7236 21.8553 37.2502 20.9978L42.6044 18.5847ZM15.107 21.1789C14.6467 22.0429 14.2845 22.9571 14.0205 23.9062L8.63139 21.5803C8.92376 20.6487 9.2903 19.7323 9.71794 18.8531L15.107 21.1789ZM38.2756 12.9404C38.9912 13.5797 39.6654 14.2822 40.2785 15.0284L36.1549 19.3222C35.5636 18.5521 34.8916 17.8517 34.1498 17.2342L38.2756 12.9404ZM21.1156 33.3098C21.1156 36.1331 23.4065 38.4218 26.2276 38.4218C29.053 38.4218 31.3418 36.1331 31.3418 33.3098C31.3418 31.3832 30.277 29.7054 28.6996 28.8349L26.2276 17.2516L23.7556 28.8349C22.1825 29.7054 21.1156 31.3832 21.1156 33.3098Z" fill="url(#paint0_linear_53_32)"/>
<circle opacity="0.1" cx="36" cy="34" r="24" fill="url(#paint1_linear_53_32)"/>
<defs>
<linearGradient id="paint0_linear_53_32" x1="0" y1="24" x2="52.3636" y2="24" gradientUnits="userSpaceOnUse">
<stop stop-color="#D500F9"/>
<stop offset="1" stop-color="#FF1744"/>
</linearGradient>
<linearGradient id="paint1_linear_53_32" x1="12" y1="34" x2="60" y2="34" gradientUnits="userSpaceOnUse">
<stop stop-color="#D500F9"/>
<stop offset="1" stop-color="#FF1744"/>
</linearGradient>
</defs>
</svg>
