<svg width="56" height="56" viewBox="0 0 56 56" fill="none" xmlns="http://www.w3.org/2000/svg">
<path d="M0 12C0 5.37258 5.37258 0 12 0H44C50.6274 0 56 5.37258 56 12V44C56 50.6274 50.6274 56 44 56H12C5.37258 56 0 50.6274 0 44V12Z" fill="#0E4DA4"/>
<path d="M38.5067 17.3594C35.7009 14.5469 31.9643 13 27.9933 13C19.7969 13 13.1272 19.6696 13.1272 27.8661C13.1272 30.4844 13.8103 33.0424 15.1094 35.2991L13 43L20.8817 40.9308C23.0513 42.1161 25.4955 42.7388 27.9866 42.7388H27.9933C36.183 42.7388 43 36.0692 43 27.8728C43 23.9018 41.3125 20.1719 38.5067 17.3594ZM27.9933 40.2344C25.7701 40.2344 23.5937 39.6384 21.6987 38.5134L21.25 38.2455L16.5759 39.471L17.8214 34.9107L17.5268 34.442C16.2879 32.4732 15.6384 30.2031 15.6384 27.8661C15.6384 21.0558 21.183 15.5112 28 15.5112C31.3013 15.5112 34.4018 16.7969 36.7321 19.1339C39.0625 21.471 40.4955 24.5714 40.4888 27.8728C40.4888 34.6897 34.8036 40.2344 27.9933 40.2344ZM34.7701 30.9799C34.4018 30.7924 32.5737 29.8951 32.2321 29.7746C31.8906 29.6473 31.6429 29.5871 31.3951 29.9621C31.1473 30.3371 30.4375 31.1674 30.2165 31.4219C30.0022 31.6696 29.7812 31.7031 29.4129 31.5156C27.2299 30.4241 25.7969 29.567 24.3571 27.096C23.9754 26.4397 24.7388 26.4866 25.4487 25.067C25.5692 24.8192 25.5089 24.6049 25.4152 24.4174C25.3214 24.2299 24.5781 22.4018 24.2701 21.6585C23.9687 20.9353 23.6607 21.0357 23.433 21.0223C23.2187 21.0089 22.971 21.0089 22.7232 21.0089C22.4754 21.0089 22.0737 21.1027 21.7321 21.471C21.3906 21.846 20.433 22.7433 20.433 24.5714C20.433 26.3996 21.7656 28.1674 21.9464 28.4152C22.1339 28.6629 24.5647 32.4129 28.2946 34.0268C30.6518 35.0446 31.5759 35.1317 32.7545 34.9576C33.471 34.8504 34.9509 34.0603 35.2589 33.1897C35.567 32.3192 35.567 31.5759 35.4732 31.4219C35.3862 31.2545 35.1384 31.1607 34.7701 30.9799Z" fill="white"/>
</svg>
